<?xml version="1.0" standalone="no"?>
<!DOCTYPE svg PUBLIC "-//W3C//DTD SVG 20010904//EN"
 "http://www.w3.org/TR/2001/REC-SVG-20010904/DTD/svg10.dtd">
<svg version="1.0" xmlns="http://www.w3.org/2000/svg"
 width="775.000000pt" height="775.000000pt" viewBox="0 0 775.000000 775.000000"
 preserveAspectRatio="xMidYMid meet">
<metadata>
Created by potrace 1.11, written by Peter Selinger 2001-2013
</metadata>
<g transform="translate(0.000000,775.000000) scale(0.100000,-0.100000)"
fill="#000000" stroke="none">
<path d="M22 7732 c-10 -3 -12 -552 -11 -2708 l1 -2704 1159 0 c920 0 1159 -3
1160 -12 0 -7 1 -528 2 -1158 l2 -1145 2703 -1 2702 -1 0 2706 0 2706 -1142 0
c-629 -1 -1150 1 -1158 3 -13 3 -15 140 -14 1161 l0 1159 -2696 -1 c-1482 0
-2701 -2 -2708 -5z m4591 -772 l37 0 0 -772 0 -773 -1142 1 c-629 1 -1151 0
-1160 -3 -16 -4 -17 -80 -17 -1154 0 -632 -2 -1152 -4 -1157 -4 -5 -1508 -8
-1537 -3 -3 1 -5 869 -5 1931 l0 1929 35 3 c25 2 3517 1 3793 -2z m-5 -2319
l42 -1 0 -769 c0 -606 -3 -770 -12 -773 -11 -3 -1512 -2 -1528 1 -11 2 -4
1533 7 1539 8 5 1152 7 1491 3z m2365 -1928 c0 -1061 -2 -1930 -2 -1933 -1 -3
-870 -5 -1933 -5 l-1932 0 0 763 c-1 420 2 768 5 773 3 5 489 10 1160 11
l1154 3 2 1155 c0 635 2 1156 2 1158 1 1 349 2 774 2 l772 0 -2 -1927z"/>
</g>
</svg>
